<svg data-v-423bf9ae="" xmlns="http://www.w3.org/2000/svg" viewBox="0 0 424 90" class="iconLeftSlogan"><!----><!----><!----><g data-v-423bf9ae="" id="1a0d6c6f-a702-48f5-b823-aeeaefe66757" fill="black" transform="matrix(4.9461588859558105,0,0,4.9461588859558105,104.80652618408203,-14.541704177856445)"><path d="M4.99 3.42L2.60 3.42L2.60 7.66L3.12 7.66L3.12 7.66Q3.41 7.66 3.69 7.55L3.69 7.55L3.69 7.55Q3.98 7.44 4.21 7.23L4.21 7.23L4.21 7.23Q4.44 7.01 4.60 6.69L4.60 6.69L4.60 6.69Q4.76 6.36 4.79 5.93L4.79 5.93L5.09 5.93L5.09 9.63L4.79 9.63L4.79 9.63Q4.74 9.22 4.58 8.92L4.58 8.92L4.58 8.92Q4.42 8.61 4.18 8.41L4.18 8.41L4.18 8.41Q3.95 8.20 3.67 8.10L3.67 8.10L3.67 8.10Q3.40 8.00 3.12 8.00L3.12 8.00L2.60 8.00L2.60 11.20L2.60 11.20Q2.60 11.66 2.53 11.96L2.53 11.96L2.53 11.96Q2.45 12.26 2.28 12.45L2.28 12.45L2.28 12.45Q2.10 12.64 1.80 12.72L1.80 12.72L1.80 12.72Q1.50 12.80 1.05 12.80L1.05 12.80L1.05 3.98L1.05 3.98Q1.05 3.64 1.06 3.46L1.06 3.46L1.06 3.46Q1.07 3.27 1.15 3.19L1.15 3.19L1.15 3.19Q1.22 3.11 1.38 3.10L1.38 3.10L1.38 3.10Q1.54 3.08 1.83 3.08L1.83 3.08L6.13 3.08L6.13 3.08Q6.43 3.08 6.59 3.12L6.59 3.12L6.59 3.12Q6.75 3.15 6.83 3.25L6.83 3.25L6.83 3.25Q6.90 3.35 6.92 3.52L6.92 3.52L6.92 3.52Q6.93 3.70 6.93 3.97L6.93 3.97L6.93 5.91L6.54 5.91L6.54 4.94L6.54 4.94Q6.54 4.51 6.45 4.22L6.45 4.22L6.45 4.22Q6.37 3.93 6.19 3.75L6.19 3.75L6.19 3.75Q6.01 3.58 5.71 3.50L5.71 3.50L5.71 3.50Q5.42 3.42 4.99 3.42L4.99 3.42ZM9.84 2.94L9.84 2.94L9.84 10.94L9.84 10.94Q9.84 11.22 9.84 11.55L9.84 11.55L9.84 11.55Q9.84 11.87 9.92 12.14L9.92 12.14L9.92 12.14Q10.00 12.41 10.19 12.58L10.19 12.58L10.19 12.58Q10.38 12.76 10.75 12.76L10.75 12.76L10.75 12.76Q10.77 12.76 10.77 12.78L10.77 12.78L10.77 12.78Q10.77 12.80 10.75 12.80L10.75 12.80L9.82 12.80L9.82 12.80Q9.29 12.80 8.99 12.68L8.99 12.68L8.99 12.68Q8.68 12.56 8.53 12.36L8.53 12.36L8.53 12.36Q8.37 12.15 8.34 11.87L8.34 11.87L8.34 11.87Q8.30 11.59 8.30 11.27L8.30 11.27L8.30 4.57L8.30 4.57Q8.30 4.12 8.38 3.80L8.38 3.80L8.38 3.80Q8.46 3.49 8.64 3.29L8.64 3.29L8.64 3.29Q8.83 3.10 9.12 3.02L9.12 3.02L9.12 3.02Q9.41 2.94 9.84 2.94ZM15.76 12.80L13.32 12.80L13.32 12.80Q12.84 12.80 12.54 12.67L12.54 12.67L12.54 12.67Q12.24 12.54 12.08 12.30L12.08 12.30L12.08 12.30Q11.91 12.06 11.85 11.72L11.85 11.72L11.85 11.72Q11.79 11.39 11.79 10.98L11.79 10.98L11.79 6.74L11.79 6.74Q11.79 6.30 11.86 5.99L11.86 5.99L11.86 5.99Q11.94 5.69 12.11 5.50L12.11 5.50L12.11 5.50Q12.29 5.31 12.59 5.23L12.59 5.23L12.59 5.23Q12.89 5.15 13.34 5.15L13.34 5.15L13.34 11.27L13.34 11.27Q13.34 11.58 13.43 11.81L13.43 11.81L13.43 11.81Q13.51 12.03 13.69 12.18L13.69 12.18L13.69 12.18Q13.87 12.33 14.16 12.39L14.16 12.39L14.16 12.39Q14.46 12.46 14.89 12.46L14.89 12.46L15.50 12.46L15.50 12.46Q16.26 12.46 16.66 12.19L16.66 12.19L16.66 12.19Q17.05 11.92 17.05 11.30L17.05 11.30L17.05 5.96L17.05 5.96Q17.05 5.73 17.06 5.57L17.06 5.57L17.06 5.57Q17.07 5.41 17.11 5.32L17.11 5.32L17.11 5.32Q17.14 5.23 17.22 5.19L17.22 5.19L17.22 5.19Q17.30 5.15 17.44 5.15L17.44 5.15L17.44 11.30L17.44 11.30Q17.44 11.59 17.36 11.86L17.36 11.86L17.36 11.86Q17.28 12.13 17.09 12.34L17.09 12.34L17.09 12.34Q16.90 12.55 16.57 12.68L16.57 12.68L16.57 12.68Q16.25 12.80 15.76 12.80L15.76 12.80ZM20.84 4.22L20.84 4.22L20.84 5.27L22.34 5.27L22.34 5.61L20.84 5.61L20.84 11.21L20.84 11.21Q20.84 11.66 20.77 11.96L20.77 11.96L20.77 11.96Q20.70 12.26 20.52 12.45L20.52 12.45L20.52 12.45Q20.34 12.64 20.05 12.72L20.05 12.72L20.05 12.72Q19.75 12.80 19.30 12.80L19.30 12.80L19.30 5.61L18.48 5.61L18.48 5.27L19.30 5.27L19.30 4.60L19.30 4.60Q19.30 4.29 19.41 4.01L19.41 4.01L19.41 4.01Q19.52 3.73 19.72 3.53L19.72 3.53L19.72 3.53Q19.92 3.32 20.20 3.20L20.20 3.20L20.20 3.20Q20.47 3.08 20.82 3.08L20.82 3.08L22.11 3.08L22.11 3.08Q22.36 3.08 22.49 3.13L22.49 3.13L22.49 3.13Q22.63 3.18 22.69 3.29L22.69 3.29L22.69 3.29Q22.75 3.40 22.76 3.56L22.76 3.56L22.76 3.56Q22.77 3.73 22.77 3.97L22.77 3.97L22.77 4.59L22.37 4.59L22.37 4.59Q22.34 4.34 22.28 4.14L22.28 4.14L22.28 4.14Q22.22 3.93 22.11 3.78L22.11 3.78L22.11 3.78Q22.00 3.64 21.83 3.55L21.83 3.55L21.83 3.55Q21.67 3.47 21.44 3.47L21.44 3.47L21.44 3.47Q21.14 3.47 20.99 3.69L20.99 3.69L20.99 3.69Q20.84 3.90 20.84 4.22ZM24.45 4.22L24.45 4.22L24.45 5.27L25.94 5.27L25.94 5.61L24.45 5.61L24.45 11.21L24.45 11.21Q24.45 11.66 24.37 11.96L24.37 11.96L24.37 11.96Q24.30 12.26 24.12 12.45L24.12 12.45L24.12 12.45Q23.95 12.64 23.65 12.72L23.65 12.72L23.65 12.72Q23.35 12.80 22.90 12.80L22.90 12.80L22.90 5.61L22.09 5.61L22.09 5.27L22.90 5.27L22.90 4.60L22.90 4.60Q22.90 4.29 23.01 4.01L23.01 4.01L23.01 4.01Q23.12 3.73 23.32 3.53L23.32 3.53L23.32 3.53Q23.52 3.32 23.80 3.20L23.80 3.20L23.80 3.20Q24.08 3.08 24.42 3.08L24.42 3.08L25.72 3.08L25.72 3.08Q25.96 3.08 26.10 3.13L26.10 3.13L26.10 3.13Q26.23 3.18 26.29 3.29L26.29 3.29L26.29 3.29Q26.35 3.40 26.36 3.56L26.36 3.56L26.36 3.56Q26.37 3.73 26.37 3.97L26.37 3.97L26.37 4.59L25.97 4.59L25.97 4.59Q25.94 4.34 25.88 4.14L25.88 4.14L25.88 4.14Q25.82 3.93 25.71 3.78L25.71 3.78L25.71 3.78Q25.60 3.64 25.44 3.55L25.44 3.55L25.44 3.55Q25.27 3.47 25.05 3.47L25.05 3.47L25.05 3.47Q24.74 3.47 24.59 3.69L24.59 3.69L24.59 3.69Q24.45 3.90 24.45 4.22ZM25.63 5.27L25.63 5.27L26.27 5.27L26.27 5.27Q26.67 5.27 26.94 5.34L26.94 5.34L26.94 5.34Q27.21 5.41 27.40 5.55L27.40 5.55L27.40 5.55Q27.59 5.70 27.72 5.93L27.72 5.93L27.72 5.93Q27.85 6.16 27.95 6.49L27.95 6.49L29.48 11.28L31.32 5.60L31.32 5.60Q31.38 5.39 31.47 5.33L31.47 5.33L31.47 5.33Q31.55 5.27 31.72 5.27L31.72 5.27L32.12 5.27L32.12 5.27Q32.15 5.27 32.15 5.28L32.15 5.28L32.15 5.28Q32.15 5.29 32.12 5.29L32.12 5.29L32.12 5.29Q31.92 5.29 31.83 5.38L31.83 5.38L31.83 5.38Q31.73 5.48 31.66 5.67L31.66 5.67L29.06 13.90L29.06 13.90Q28.96 14.25 28.82 14.48L28.82 14.48L28.82 14.48Q28.68 14.71 28.51 14.84L28.51 14.84L28.51 14.84Q28.34 14.97 28.15 15.02L28.15 15.02L28.15 15.02Q27.96 15.07 27.77 15.07L27.77 15.07L27.62 15.07L27.62 15.07Q27.12 15.08 26.81 14.93L26.81 14.93L26.81 14.93Q26.51 14.78 26.35 14.55L26.35 14.55L26.35 14.55Q26.19 14.32 26.14 14.05L26.14 14.05L26.14 14.05Q26.09 13.78 26.08 13.56L26.08 13.56L26.08 13.56Q26.17 13.56 26.24 13.56L26.24 13.56L26.24 13.56Q26.31 13.57 26.36 13.61L26.36 13.61L26.36 13.61Q26.40 13.64 26.43 13.72L26.43 13.72L26.43 13.72Q26.46 13.79 26.48 13.92L26.48 13.92L26.48 13.92Q26.58 14.34 26.87 14.54L26.87 14.54L26.87 14.54Q27.16 14.75 27.75 14.72L27.75 14.72L27.75 14.72Q28.18 14.72 28.43 14.37L28.43 14.37L28.43 14.37Q28.68 14.02 28.84 13.42L28.84 13.42L29.00 12.88L29.00 12.88Q28.90 12.84 28.79 12.77L28.79 12.77L28.79 12.77Q28.67 12.69 28.56 12.58L28.56 12.58L28.56 12.58Q28.44 12.46 28.35 12.29L28.35 12.29L28.35 12.29Q28.25 12.11 28.16 11.87L28.16 11.87L26.26 5.90L26.26 5.90Q26.21 5.75 26.16 5.64L26.16 5.64L26.16 5.64Q26.11 5.52 26.05 5.44L26.05 5.44L26.05 5.44Q25.98 5.37 25.88 5.33L25.88 5.33L25.88 5.33Q25.79 5.29 25.63 5.29L25.63 5.29L25.63 5.29Q25.61 5.29 25.61 5.28L25.61 5.28L25.61 5.28Q25.61 5.27 25.63 5.27ZM34.72 3.08L37.82 3.08L37.82 3.08Q38.13 3.08 38.41 3.20L38.41 3.20L38.41 3.20Q38.68 3.32 38.89 3.53L38.89 3.53L38.89 3.53Q39.10 3.74 39.22 4.02L39.22 4.02L39.22 4.02Q39.35 4.30 39.35 4.61L39.35 4.61L39.35 5.92L38.96 5.92L38.96 5.92Q38.91 5.28 38.72 4.82L38.72 4.82L38.72 4.82Q38.53 4.35 38.23 4.04L38.23 4.04L38.23 4.04Q37.94 3.73 37.57 3.58L37.57 3.58L37.57 3.58Q37.19 3.43 36.78 3.43L36.78 3.43L36.27 3.43L36.27 3.43Q35.86 3.43 35.57 3.51L35.57 3.51L35.57 3.51Q35.27 3.60 35.09 3.78L35.09 3.78L35.09 3.78Q34.90 3.96 34.81 4.25L34.81 4.25L34.81 4.25Q34.72 4.53 34.72 4.94L34.72 4.94L34.72 10.94L34.72 10.94Q34.72 11.36 34.81 11.65L34.81 11.65L34.81 11.65Q34.90 11.94 35.09 12.12L35.09 12.12L35.09 12.12Q35.27 12.30 35.57 12.39L35.57 12.39L35.57 12.39Q35.86 12.47 36.27 12.47L36.27 12.47L36.78 12.47L36.78 12.47Q37.20 12.47 37.62 12.29L37.62 12.29L37.62 12.29Q38.04 12.11 38.37 11.77L38.37 11.77L38.37 11.77Q38.71 11.42 38.91 10.91L38.91 10.91L38.91 10.91Q39.12 10.40 39.12 9.73L39.12 9.73L39.12 9.04L39.51 9.04L39.51 11.28L39.51 11.28Q39.51 11.59 39.39 11.87L39.39 11.87L39.39 11.87Q39.27 12.15 39.06 12.36L39.06 12.36L39.06 12.36Q38.85 12.56 38.57 12.68L38.57 12.68L38.57 12.68Q38.29 12.80 37.98 12.80L37.98 12.80L34.72 12.80L34.72 12.80Q34.41 12.80 34.13 12.68L34.13 12.68L34.13 12.68Q33.85 12.56 33.64 12.36L33.64 12.36L33.64 12.36Q33.43 12.15 33.31 11.87L33.31 11.87L33.31 11.87Q33.20 11.59 33.20 11.28L33.20 11.28L33.20 4.61L33.20 4.61Q33.20 4.30 33.31 4.02L33.31 4.02L33.31 4.02Q33.43 3.74 33.64 3.53L33.64 3.53L33.64 3.53Q33.85 3.32 34.13 3.20L34.13 3.20L34.13 3.20Q34.41 3.08 34.72 3.08L34.72 3.08ZM42.42 2.94L42.42 2.94L42.42 10.94L42.42 10.94Q42.42 11.22 42.42 11.55L42.42 11.55L42.42 11.55Q42.42 11.87 42.50 12.14L42.50 12.14L42.50 12.14Q42.58 12.41 42.77 12.58L42.77 12.58L42.77 12.58Q42.96 12.76 43.33 12.76L43.33 12.76L43.33 12.76Q43.35 12.76 43.35 12.78L43.35 12.78L43.35 12.78Q43.35 12.80 43.33 12.80L43.33 12.80L42.40 12.80L42.40 12.80Q41.87 12.80 41.57 12.68L41.57 12.68L41.57 12.68Q41.26 12.56 41.11 12.36L41.11 12.36L41.11 12.36Q40.95 12.15 40.92 11.87L40.92 11.87L40.92 11.87Q40.88 11.59 40.88 11.27L40.88 11.27L40.88 4.57L40.88 4.57Q40.88 4.12 40.96 3.80L40.96 3.80L40.96 3.80Q41.04 3.49 41.22 3.29L41.22 3.29L41.22 3.29Q41.41 3.10 41.70 3.02L41.70 3.02L41.70 3.02Q41.99 2.94 42.42 2.94ZM47.18 5.63L47.18 5.63L47.18 5.63Q46.47 5.63 46.18 5.98L46.18 5.98L46.18 5.98Q45.88 6.34 45.88 7.12L45.88 7.12L45.88 7.77L48.48 7.77L48.48 7.12L48.48 7.12Q48.48 6.73 48.41 6.45L48.41 6.45L48.41 6.45Q48.34 6.17 48.19 5.98L48.19 5.98L48.19 5.98Q48.04 5.80 47.79 5.71L47.79 5.71L47.79 5.71Q47.54 5.63 47.18 5.63ZM50.00 8.11L45.88 8.11L45.88 10.95L45.88 10.95Q45.88 11.38 45.96 11.67L45.96 11.67L45.96 11.67Q46.05 11.96 46.23 12.14L46.23 12.14L46.23 12.14Q46.41 12.32 46.71 12.40L46.71 12.40L46.71 12.40Q47.00 12.48 47.43 12.48L47.43 12.48L47.51 12.48L47.51 12.48Q47.94 12.48 48.23 12.40L48.23 12.40L48.23 12.40Q48.53 12.32 48.71 12.14L48.71 12.14L48.71 12.14Q48.90 11.96 48.98 11.67L48.98 11.67L48.98 11.67Q49.05 11.38 49.05 10.95L49.05 10.95L49.05 10.30L49.44 10.30L49.44 11.29L49.44 11.29Q49.44 11.51 49.40 11.78L49.40 11.78L49.40 11.78Q49.35 12.04 49.19 12.27L49.19 12.27L49.19 12.27Q49.03 12.50 48.73 12.65L48.73 12.65L48.73 12.65Q48.43 12.80 47.93 12.80L47.93 12.80L45.88 12.80L45.88 12.80Q45.61 12.80 45.34 12.67L45.34 12.67L45.34 12.67Q45.07 12.54 44.85 12.33L44.85 12.33L44.85 12.33Q44.64 12.11 44.51 11.84L44.51 11.84L44.51 11.84Q44.37 11.57 44.37 11.29L44.37 11.29L44.37 6.79L44.37 6.79Q44.37 6.49 44.50 6.22L44.50 6.22L44.50 6.22Q44.62 5.95 44.83 5.75L44.83 5.75L44.83 5.75Q45.04 5.54 45.31 5.42L45.31 5.42L45.31 5.42Q45.58 5.29 45.88 5.27L45.88 5.27L48.48 5.27L48.48 5.27Q48.79 5.27 49.07 5.39L49.07 5.39L49.07 5.39Q49.35 5.51 49.55 5.72L49.55 5.72L49.55 5.72Q49.76 5.93 49.88 6.20L49.88 6.20L49.88 6.20Q50.00 6.48 50.00 6.79L50.00 6.79L50.00 8.11ZM52.88 7.79L55.48 7.79L55.48 7.14L55.48 7.14Q55.48 6.32 55.09 5.97L55.09 5.97L55.09 5.97Q54.70 5.63 53.89 5.63L53.89 5.63L53.89 5.63Q53.48 5.63 53.20 5.70L53.20 5.70L53.20 5.70Q52.92 5.78 52.74 5.96L52.74 5.96L52.74 5.96Q52.56 6.15 52.48 6.43L52.48 6.43L52.48 6.43Q52.40 6.72 52.40 7.14L52.40 7.14L52.40 7.30L52.01 7.30L52.01 6.18L52.01 6.18Q52.01 5.87 52.03 5.69L52.03 5.69L52.03 5.69Q52.05 5.51 52.13 5.42L52.13 5.42L52.13 5.42Q52.21 5.33 52.37 5.31L52.37 5.31L52.37 5.31Q52.53 5.28 52.82 5.28L52.82 5.28L55.48 5.28L55.48 5.28Q55.76 5.28 56.03 5.42L56.03 5.42L56.03 5.42Q56.30 5.55 56.52 5.77L56.52 5.77L56.52 5.77Q56.73 5.98 56.86 6.25L56.86 6.25L56.86 6.25Q56.99 6.53 56.99 6.81L56.99 6.81L56.99 11.27L56.99 11.27Q56.99 11.58 56.87 11.85L56.87 11.85L56.87 11.85Q56.75 12.12 56.53 12.33L56.53 12.33L56.53 12.33Q56.32 12.53 56.05 12.66L56.05 12.66L56.05 12.66Q55.77 12.78 55.48 12.80L55.48 12.80L52.88 12.80L52.88 12.80Q52.56 12.80 52.29 12.68L52.29 12.68L52.29 12.68Q52.01 12.56 51.81 12.36L51.81 12.36L51.81 12.36Q51.60 12.15 51.48 11.87L51.48 11.87L51.48 11.87Q51.37 11.59 51.37 11.27L51.37 11.27L51.37 9.31L51.37 9.31Q51.37 9.00 51.48 8.72L51.48 8.72L51.48 8.72Q51.60 8.44 51.81 8.23L51.81 8.23L51.81 8.23Q52.01 8.03 52.29 7.91L52.29 7.91L52.29 7.91Q52.56 7.79 52.88 7.79L52.88 7.79ZM55.48 10.94L55.48 8.13L54.43 8.13L54.43 8.13Q54.00 8.13 53.71 8.21L53.71 8.21L53.71 8.21Q53.41 8.29 53.22 8.46L53.22 8.46L53.22 8.46Q53.04 8.64 52.96 8.93L52.96 8.93L52.96 8.93Q52.88 9.22 52.88 9.64L52.88 9.64L52.88 10.94L52.88 10.94Q52.88 11.33 52.94 11.60L52.94 11.60L52.94 11.60Q53.01 11.87 53.16 12.06L53.16 12.06L53.16 12.06Q53.31 12.24 53.56 12.33L53.56 12.33L53.56 12.33Q53.80 12.43 54.15 12.46L54.15 12.46L54.15 12.46Q54.52 12.43 54.77 12.34L54.77 12.34L54.77 12.34Q55.02 12.25 55.18 12.07L55.18 12.07L55.18 12.07Q55.34 11.89 55.41 11.61L55.41 11.61L55.41 11.61Q55.48 11.33 55.48 10.94L55.48 10.94ZM62.82 5.27L62.82 5.27L62.82 5.27Q63.13 5.27 63.41 5.39L63.41 5.39L63.41 5.39Q63.69 5.51 63.90 5.72L63.90 5.72L63.90 5.72Q64.11 5.93 64.24 6.21L64.24 6.21L64.24 6.21Q64.37 6.49 64.37 6.80L64.37 6.80L64.37 11.20L64.37 11.20Q64.37 11.65 64.30 11.96L64.30 11.96L64.30 11.96Q64.22 12.26 64.05 12.45L64.05 12.45L64.05 12.45Q63.88 12.64 63.57 12.72L63.57 12.72L63.57 12.72Q63.27 12.80 62.82 12.80L62.82 12.80L62.82 7.13L62.82 7.13Q62.82 6.34 62.52 5.98L62.52 5.98L62.52 5.98Q62.21 5.62 61.55 5.62L61.55 5.62L60.28 5.62L60.28 11.20L60.28 11.20Q60.28 11.65 60.21 11.96L60.21 11.96L60.21 11.96Q60.14 12.26 59.95 12.45L59.95 12.45L59.95 12.45Q59.77 12.64 59.47 12.72L59.47 12.72L59.47 12.72Q59.17 12.80 58.72 12.80L58.72 12.80L58.72 5.27L61.55 5.27L62.82 5.27Z"></path></g><!----><g data-v-423bf9ae="" id="86b7f9a0-b351-4a21-b83b-f059692af077" transform="matrix(2.8125,0,0,2.8125,0,0)" stroke="none" fill="black"><path d="M0 32h32V0H0v32zM2.038 2.038h27.923v27.923H2.038V2.038z"></path><path d="M4.038 27.962h23.923V4.038H4.038v23.924zM21.049 8.25h3.402v3.402h-3.402V8.25zm0 6.049h3.402v3.402h-3.402v-3.402zm0 6.049h3.402v3.402h-3.402v-3.402zM14.299 8.25h3.402v3.402h-3.402V8.25zm0 6.049h3.402v3.402h-3.402v-3.402zm0 6.049h3.402v3.402h-3.402v-3.402zM7.549 8.25h3.402v3.402H7.549V8.25zm0 6.049h3.402v3.402H7.549v-3.402zm0 6.049h3.402v3.402H7.549v-3.402z"></path></g><!----><g data-v-423bf9ae="" id="2078e194-d76b-420f-885a-d6b0689e9386" fill="black" transform="matrix(0.7362699508666992,0,0,0.7362699508666992,109.4404296875,57.98262023925781)"><path d="M0.76 8.02L0.76 8.02L0.76 8.02Q0.76 6.86 1.23 5.83L1.23 5.83L1.23 5.83Q1.70 4.85 2.45 4.27L2.45 4.27L2.45 4.27Q3.19 3.69 4.09 3.37L4.09 3.37L4.09 3.37Q4.98 3.05 5.82 3.05L5.82 3.05L5.82 3.05Q6.69 3.05 7.36 3.16L7.36 3.16L7.36 3.16Q7.99 3.26 8.29 3.37L8.29 3.37L8.29 3.37Q8.59 3.48 8.63 3.48L8.63 3.48L8.63 3.48Q8.80 3.48 8.82 3.41L8.82 3.41L8.82 3.41Q8.85 3.33 8.85 3.09L8.85 3.09L8.85 2.97L9.38 2.97L9.38 2.97Q9.42 4.30 9.55 5.64L9.55 5.64L9.04 5.65L9.04 5.65Q9.02 5.40 9.00 5.26L9.00 5.26L9.00 5.26Q9.00 5.20 9.00 5.13L9.00 5.13L9.00 5.13Q8.99 5.07 8.98 5.02L8.98 5.02L8.98 5.02Q8.98 4.98 8.98 4.95L8.98 4.95L8.98 4.95Q8.95 4.84 8.95 4.74L8.95 4.74L8.95 4.74Q8.95 4.68 8.91 4.59L8.91 4.59L8.91 4.59Q8.91 4.57 8.88 4.55L8.88 4.55L8.88 4.55Q8.85 4.52 8.85 4.50L8.85 4.50L8.85 4.50Q8.82 4.44 8.75 4.41L8.75 4.41L8.75 4.41Q8.71 4.38 8.68 4.37L8.68 4.37L8.68 4.37Q8.65 4.36 8.63 4.35L8.63 4.35L8.63 4.35Q8.61 4.35 8.59 4.33L8.59 4.33L8.59 4.33Q8.57 4.31 8.52 4.29L8.52 4.29L8.52 4.29Q8.48 4.27 8.44 4.25L8.44 4.25L8.44 4.25Q8.22 4.16 8.19 4.14L8.19 4.14L8.19 4.14Q7.84 3.96 7.20 3.83L7.20 3.83L7.20 3.83Q6.53 3.71 5.87 3.71L5.87 3.71L5.87 3.71Q4.14 3.71 3.05 4.84L3.05 4.84L3.05 4.84Q1.94 5.99 1.95 7.62L1.95 7.62L1.95 7.62Q1.95 9.35 3.17 10.69L3.17 10.69L3.17 10.69Q4.37 12.02 6.19 12.02L6.19 12.02L6.19 12.02Q7.19 12.02 8.13 11.49L8.13 11.49L8.13 11.49Q9.08 10.94 9.11 10.58L9.11 10.58L9.15 9.41L9.65 9.41L9.56 11.45L9.56 11.45Q9.50 11.49 9.37 11.57L9.37 11.57L9.37 11.57Q9.31 11.60 8.85 11.85L8.85 11.85L8.85 11.85Q8.47 12.05 8.03 12.23L8.03 12.23L8.03 12.23Q7.66 12.39 7.01 12.51L7.01 12.51L7.01 12.51Q6.41 12.63 5.84 12.64L5.84 12.64L5.84 12.64Q3.46 12.64 2.10 11.39L2.10 11.39L2.10 11.39Q0.76 10.14 0.76 8.02ZM18.17 3.64L17.68 3.64L17.69 3.08L21.28 3.08L21.28 3.64L20.64 3.64L20.64 3.64Q20.27 3.64 20.16 3.72L20.16 3.72L20.16 3.72Q20.04 3.80 20.04 4.16L20.04 4.16L20.04 11.22L20.04 11.22Q20.04 11.57 20.13 11.67L20.13 11.67L20.13 11.67Q20.21 11.77 20.51 11.77L20.51 11.77L20.51 11.77Q23.38 11.74 24.04 11.63L24.04 11.63L24.04 11.63Q24.25 11.61 24.33 11.39L24.33 11.39L24.33 11.39Q24.41 11.17 24.61 10.05L24.61 10.05L25.10 10.08L24.64 12.41L17.88 12.41L17.86 11.87L18.25 11.87L18.25 11.87Q18.76 11.87 18.83 11.80L18.83 11.80L18.83 11.80Q18.91 11.72 18.92 11.33L18.92 11.33L18.92 4.09L18.92 4.09Q18.92 3.80 18.76 3.72L18.76 3.72L18.76 3.72Q18.61 3.64 18.17 3.64L18.17 3.64ZM32.85 3.64L32.83 3.08L40.04 3.08L40.04 3.08Q40.06 4.14 40.11 5.28L40.11 5.28L39.57 5.30L39.57 5.30Q39.55 4.66 39.50 4.25L39.50 4.25L39.50 4.25Q39.46 3.89 39.40 3.80L39.40 3.80L39.40 3.80Q39.35 3.71 39.23 3.69L39.23 3.69L39.23 3.69Q39.14 3.68 38.55 3.68L38.55 3.68L36.17 3.68L36.17 3.68Q35.62 3.68 35.48 3.77L35.48 3.77L35.48 3.77Q35.36 3.86 35.36 4.33L35.36 4.33L35.36 6.28L35.36 6.28Q35.36 6.69 35.41 6.76L35.41 6.76L35.41 6.76Q35.48 6.84 35.82 6.84L35.82 6.84L37.93 6.84L37.93 6.84Q38.29 6.84 38.38 6.73L38.38 6.73L38.38 6.73Q38.46 6.63 38.47 6.14L38.47 6.14L38.47 5.61L38.98 5.63L38.98 8.97L38.47 8.97L38.47 8.24L38.47 8.24Q38.47 7.66 38.39 7.57L38.39 7.57L38.39 7.57Q38.31 7.46 37.96 7.46L37.96 7.46L35.86 7.46L35.86 7.46Q35.53 7.46 35.44 7.54L35.44 7.54L35.44 7.54Q35.36 7.63 35.36 7.89L35.36 7.89L35.36 11.20L35.36 11.20Q35.36 11.57 35.44 11.67L35.44 11.67L35.44 11.67Q35.53 11.77 35.80 11.77L35.80 11.77L35.80 11.77Q38.72 11.75 39.25 11.69L39.25 11.69L39.25 11.69Q39.76 11.63 39.85 11.38L39.85 11.38L39.85 11.36L39.86 11.35L40.09 10.17L40.56 10.25L40.22 12.41L33.11 12.41L33.11 11.87L33.48 11.87L33.48 11.87Q34.04 11.87 34.13 11.80L34.13 11.80L34.13 11.80Q34.22 11.72 34.22 11.33L34.22 11.33L34.22 4.24L34.22 4.24Q34.22 3.82 34.07 3.73L34.07 3.73L34.07 3.73Q33.90 3.64 33.24 3.64L33.24 3.64L32.85 3.64ZM48.45 12.41L48.44 11.87L48.61 11.87L48.61 11.87Q49 11.87 49.13 11.73L49.13 11.73L49.13 11.73Q49.25 11.57 49.59 10.83L49.59 10.83L50.50 8.82L51.07 7.53L51.07 7.53Q51.34 6.97 51.38 6.86L51.38 6.86L51.38 6.86Q51.45 6.70 51.50 6.60L51.50 6.60L51.50 6.60Q51.55 6.51 51.56 6.45L51.56 6.45L51.66 6.21L53.09 2.74L53.38 2.74L53.38 2.74Q54.24 4.98 56.42 10.25L56.42 10.25L56.42 10.25Q56.88 11.34 57.07 11.64L57.07 11.64L57.07 11.64Q57.20 11.87 57.64 11.87L57.64 11.87L57.85 11.87L57.84 12.41L54.65 12.41L54.66 11.87L55.08 11.87L55.08 11.87Q55.69 11.87 55.69 11.70L55.69 11.70L55.69 11.70Q55.69 11.63 55.56 11.27L55.56 11.27L54.52 8.72L51.27 8.72L50.16 11.18L50.16 11.18Q50.03 11.50 50.03 11.63L50.03 11.63L50.03 11.63Q50.03 11.79 50.12 11.83L50.12 11.83L50.12 11.83Q50.22 11.87 50.60 11.87L50.60 11.87L51.17 11.87L51.17 12.41L48.45 12.41ZM52.95 4.79L51.54 8.10L54.28 8.10L52.95 4.79ZM65.60 3.64L65.58 3.08L67.76 3.08L73.49 10.48L73.49 4.14L73.49 4.14Q73.49 3.81 73.34 3.72L73.34 3.72L73.34 3.72Q73.19 3.64 72.73 3.64L72.73 3.64L72.24 3.64L72.26 3.08L75.24 3.08L75.24 3.64L74.92 3.64L74.92 3.64Q74.46 3.64 74.31 3.75L74.31 3.75L74.31 3.75Q74.16 3.86 74.16 4.25L74.16 4.25L74.16 12.32L74.16 12.47L74.16 12.47Q74.16 12.52 74.14 12.57L74.14 12.57L74.14 12.57Q74.13 12.61 74.09 12.64L74.09 12.64L74.09 12.64Q74.08 12.65 74.03 12.65L74.03 12.65L73.83 12.65L73.77 12.65L73.75 12.65L73.72 12.64L73.72 12.64Q73.69 12.64 73.68 12.63L73.68 12.63L73.68 12.63Q73.66 12.61 73.66 12.60L73.66 12.60L73.66 12.60Q73.66 12.58 73.65 12.57L73.65 12.57L73.65 12.57Q73.62 12.54 73.60 12.50L73.60 12.50L73.60 12.50Q73.58 12.48 73.56 12.45L73.56 12.45L73.56 12.45Q73.54 12.41 73.53 12.40L73.53 12.40L67.42 4.56L67.49 11.22L67.49 11.22Q67.49 11.67 67.66 11.77L67.66 11.77L67.66 11.77Q67.81 11.87 68.52 11.87L68.52 11.87L68.76 11.87L68.76 12.41L65.82 12.41L65.82 11.87L66.25 11.87L66.25 11.87Q66.62 11.87 66.73 11.76L66.73 11.76L66.73 11.76Q66.83 11.66 66.83 11.25L66.83 11.25L66.83 3.80L66.69 3.64L65.60 3.64ZM92.93 3.64L92.70 3.64L92.70 3.08L95.80 3.08L95.79 3.64L95.48 3.64L95.48 3.64Q94.65 3.64 94.65 3.94L94.65 3.94L94.65 3.94Q94.65 4.03 94.68 4.09L94.68 4.09L97.10 10.76L99.42 4.85L99.31 4.57L99.31 4.57Q99.29 4.52 99.26 4.44L99.26 4.44L99.26 4.44Q99.24 4.36 99.22 4.31L99.22 4.31L99.22 4.31Q99.20 4.25 99.19 4.22L99.19 4.22L99.19 4.22Q99.16 4.16 99.07 3.96L99.07 3.96L99.07 3.96Q98.98 3.80 98.87 3.71L98.87 3.71L98.87 3.71Q98.79 3.64 98.62 3.64L98.62 3.64L97.93 3.64L97.93 3.08L101.26 3.08L101.26 3.64L100.52 3.64L100.52 3.64Q100.29 3.64 100.23 3.68L100.23 3.68L100.23 3.68Q100.16 3.72 100.16 3.86L100.16 3.86L100.16 3.86Q100.15 4.00 100.41 4.76L100.41 4.76L102.45 10.72L104.95 4.18L104.95 4.18Q105 4.01 105 3.94L105 3.94L105 3.94Q105 3.75 104.83 3.69L104.83 3.69L104.83 3.69Q104.67 3.64 104.32 3.64L104.32 3.64L103.95 3.64L103.95 3.08L106.35 3.08L106.36 3.64L106.19 3.64L106.19 3.64Q105.84 3.64 105.75 3.77L105.75 3.77L105.75 3.77Q105.62 3.96 105.38 4.60L105.38 4.60L102.29 12.64L102.05 12.64L99.67 5.64L96.95 12.63L96.73 12.63L93.75 4.52L93.75 4.52Q93.54 3.96 93.38 3.79L93.38 3.79L93.38 3.79Q93.22 3.63 92.93 3.64L92.93 3.64ZM114.68 3.64L114.09 3.64L114.11 3.08L117.62 3.08L117.62 3.64L117.39 3.64L117.39 3.64Q116.84 3.64 116.67 3.73L116.67 3.73L116.67 3.73Q116.53 3.81 116.53 4.28L116.53 4.28L116.53 11.22L116.53 11.22Q116.53 11.68 116.64 11.77L116.64 11.77L116.64 11.77Q116.75 11.87 117.28 11.87L117.28 11.87L117.83 11.87L117.84 12.41L114.26 12.41L114.25 11.87L114.61 11.87L114.61 11.87Q115.17 11.87 115.28 11.77L115.28 11.77L115.28 11.77Q115.40 11.67 115.40 11.25L115.40 11.25L115.40 4.14L115.40 4.14Q115.40 3.77 115.29 3.71L115.29 3.71L115.29 3.71Q115.19 3.64 114.68 3.64L114.68 3.64ZM125.86 5.35L125.36 5.33L125.36 5.33Q125.49 4.17 125.57 3.08L125.57 3.08L133.65 3.08L133.65 3.08Q133.57 4.13 133.54 4.53L133.54 4.53L133.54 4.53Q133.50 5.26 133.48 5.32L133.48 5.32L132.98 5.30L132.98 5.30Q133.06 4.34 133.06 4.16L133.06 4.16L133.06 4.16Q133.06 3.88 132.92 3.79L132.92 3.79L132.92 3.79Q132.75 3.69 132.34 3.69L132.34 3.69L130.74 3.69L130.74 3.69Q130.23 3.69 130.11 3.79L130.11 3.79L130.11 3.79Q130.01 3.87 130.01 4.36L130.01 4.36L130.01 11.22L130.01 11.22Q130.01 11.66 130.15 11.76L130.15 11.76L130.15 11.76Q130.31 11.87 130.82 11.87L130.82 11.87L131.38 11.87L131.39 12.41L127.70 12.40L127.70 11.87L127.92 11.87L127.92 11.87Q128.59 11.87 128.73 11.79L128.73 11.79L128.73 11.79Q128.88 11.70 128.88 11.28L128.88 11.28L128.88 4.48L128.88 4.48Q128.88 3.92 128.78 3.80L128.78 3.80L128.78 3.80Q128.68 3.69 128.26 3.69L128.26 3.69L126.79 3.69L126.79 3.69Q126.60 3.69 126.53 3.71L126.53 3.71L126.53 3.71Q126.46 3.72 126.36 3.72L126.36 3.72L126.36 3.72Q126.33 3.72 126.21 3.79L126.21 3.79L126.21 3.79Q126.13 3.84 126.10 3.86L126.10 3.86L126.10 3.86Q126.08 3.88 126.03 3.99L126.03 3.99L126.03 3.99Q126.01 4.05 125.98 4.14L125.98 4.14L125.98 4.14Q125.95 4.21 125.93 4.36L125.93 4.36L125.93 4.36Q125.90 4.59 125.90 4.61L125.90 4.61L125.90 4.61Q125.90 4.80 125.89 4.95L125.89 4.95L125.89 4.95Q125.89 5.02 125.88 5.15L125.88 5.15L125.88 5.15Q125.88 5.29 125.86 5.35L125.86 5.35ZM141.76 3.64L141.39 3.64L141.39 3.08L144.87 3.08L144.87 3.64L144.51 3.64L144.51 3.64Q144.01 3.64 143.86 3.75L143.86 3.75L143.86 3.75Q143.72 3.84 143.71 4.25L143.71 4.25L143.71 6.91L148.26 6.91L148.26 4.14L148.26 4.14Q148.26 3.77 148.17 3.71L148.17 3.71L148.17 3.71Q148.06 3.64 147.53 3.64L147.53 3.64L146.95 3.64L146.93 3.08L150.49 3.08L150.49 3.64L150.10 3.64L150.10 3.64Q149.62 3.64 149.51 3.74L149.51 3.74L149.51 3.74Q149.40 3.83 149.40 4.22L149.40 4.22L149.40 11.29L149.40 11.29Q149.40 11.67 149.54 11.77L149.54 11.77L149.54 11.77Q149.69 11.87 150.24 11.87L150.24 11.87L150.71 11.87L150.70 12.41L147.21 12.41L147.20 11.87L147.61 11.87L147.61 11.87Q148.07 11.87 148.17 11.77L148.17 11.77L148.17 11.77Q148.26 11.67 148.26 11.25L148.26 11.25L148.26 7.58L143.71 7.58L143.71 11.25L143.71 11.25Q143.71 11.67 143.87 11.77L143.87 11.77L143.87 11.77Q144.02 11.87 144.72 11.87L144.72 11.87L145.13 11.87L145.10 12.41L141.52 12.41L141.50 11.87L141.87 11.87L141.87 11.87Q142.41 11.87 142.48 11.80L142.48 11.80L142.48 11.80Q142.58 11.70 142.58 11.25L142.58 11.25L142.58 4.09L142.58 4.09Q142.58 3.76 142.44 3.71L142.44 3.71L142.44 3.71Q142.27 3.64 141.76 3.64L141.76 3.64ZM168.40 8.02L168.40 8.02L168.40 8.02Q168.40 6.86 168.88 5.83L168.88 5.83L168.88 5.83Q169.34 4.85 170.09 4.27L170.09 4.27L170.09 4.27Q170.84 3.69 171.73 3.37L171.73 3.37L171.73 3.37Q172.63 3.05 173.47 3.05L173.47 3.05L173.47 3.05Q174.34 3.05 175.01 3.16L175.01 3.16L175.01 3.16Q175.64 3.26 175.93 3.37L175.93 3.37L175.93 3.37Q176.24 3.48 176.27 3.48L176.27 3.48L176.27 3.48Q176.44 3.48 176.46 3.41L176.46 3.41L176.46 3.41Q176.49 3.33 176.49 3.09L176.49 3.09L176.49 2.97L177.02 2.97L177.02 2.97Q177.06 4.30 177.19 5.64L177.19 5.64L176.69 5.65L176.69 5.65Q176.66 5.40 176.65 5.26L176.65 5.26L176.65 5.26Q176.65 5.20 176.64 5.13L176.64 5.13L176.64 5.13Q176.63 5.07 176.63 5.02L176.63 5.02L176.63 5.02Q176.62 4.98 176.62 4.95L176.62 4.95L176.62 4.95Q176.59 4.84 176.59 4.74L176.59 4.74L176.59 4.74Q176.59 4.68 176.55 4.59L176.55 4.59L176.55 4.59Q176.55 4.57 176.52 4.55L176.52 4.55L176.52 4.55Q176.49 4.52 176.49 4.50L176.49 4.50L176.49 4.50Q176.46 4.44 176.39 4.41L176.39 4.41L176.39 4.41Q176.35 4.38 176.33 4.37L176.33 4.37L176.33 4.37Q176.30 4.36 176.27 4.35L176.27 4.35L176.27 4.35Q176.26 4.35 176.23 4.33L176.23 4.33L176.23 4.33Q176.21 4.31 176.17 4.29L176.17 4.29L176.17 4.29Q176.13 4.27 176.09 4.25L176.09 4.25L176.09 4.25Q175.86 4.16 175.83 4.14L175.83 4.14L175.83 4.14Q175.49 3.96 174.84 3.83L174.84 3.83L174.84 3.83Q174.17 3.71 173.51 3.71L173.51 3.71L173.51 3.71Q171.79 3.71 170.69 4.84L170.69 4.84L170.69 4.84Q169.59 5.99 169.59 7.62L169.59 7.62L169.59 7.62Q169.59 9.35 170.81 10.69L170.81 10.69L170.81 10.69Q172.01 12.02 173.83 12.02L173.83 12.02L173.83 12.02Q174.84 12.02 175.78 11.49L175.78 11.49L175.78 11.49Q176.73 10.94 176.76 10.58L176.76 10.58L176.80 9.41L177.29 9.41L177.21 11.45L177.21 11.45Q177.14 11.49 177.01 11.57L177.01 11.57L177.01 11.57Q176.96 11.60 176.49 11.85L176.49 11.85L176.49 11.85Q176.11 12.05 175.67 12.23L175.67 12.23L175.67 12.23Q175.31 12.39 174.66 12.51L174.66 12.51L174.66 12.51Q174.05 12.63 173.48 12.64L173.48 12.64L173.48 12.64Q171.10 12.64 169.74 11.39L169.74 11.39L169.74 11.39Q168.40 10.14 168.40 8.02ZM185.71 7.83L185.71 7.83L185.71 7.83Q185.71 6.62 186.11 5.68L186.11 5.68L186.11 5.68Q186.53 4.72 187.22 4.12L187.22 4.12L187.22 4.12Q187.91 3.51 188.77 3.19L188.77 3.19L188.77 3.19Q189.61 2.88 190.56 2.88L190.56 2.88L190.56 2.88Q191.82 2.88 192.87 3.40L192.87 3.40L192.87 3.40Q193.95 3.93 194.66 5.07L194.66 5.07L194.66 5.07Q195.36 6.17 195.36 7.75L195.36 7.75L195.36 7.75Q195.36 8.70 195.06 9.54L195.06 9.54L195.06 9.54Q194.75 10.38 194.14 11.10L194.14 11.10L194.14 11.10Q193.54 11.81 192.60 12.22L192.60 12.22L192.60 12.22Q191.64 12.63 190.45 12.64L190.45 12.64L190.45 12.64Q189.31 12.64 188.38 12.23L188.38 12.23L188.38 12.23Q187.44 11.83 186.88 11.14L186.88 11.14L186.88 11.14Q186.31 10.45 186.01 9.60L186.01 9.60L186.01 9.60Q185.71 8.72 185.71 7.83ZM186.96 7.38L186.96 7.38L186.96 7.38Q186.96 8.52 187.39 9.60L187.39 9.60L187.39 9.60Q187.80 10.64 188.73 11.33L188.73 11.33L188.73 11.33Q189.64 12.03 190.83 12.04L190.83 12.04L190.83 12.04Q192.20 12.04 193.14 11.01L193.14 11.01L193.14 11.01Q194.09 9.97 194.09 8.10L194.09 8.10L194.09 8.10Q194.09 5.99 192.92 4.72L192.92 4.72L192.92 4.72Q191.78 3.46 190.26 3.45L190.26 3.45L190.26 3.45Q189.75 3.45 189.20 3.65L189.20 3.65L189.20 3.65Q188.66 3.85 188.15 4.25L188.15 4.25L188.15 4.25Q187.61 4.68 187.28 5.48L187.28 5.48L187.28 5.48Q186.96 6.27 186.96 7.38ZM203.49 3.64L203.48 3.08L205.65 3.08L211.39 10.48L211.39 4.14L211.39 4.14Q211.39 3.81 211.23 3.72L211.23 3.72L211.23 3.72Q211.08 3.64 210.62 3.64L210.62 3.64L210.13 3.64L210.16 3.08L213.14 3.08L213.14 3.64L212.82 3.64L212.82 3.64Q212.35 3.64 212.20 3.75L212.20 3.75L212.20 3.75Q212.05 3.86 212.05 4.25L212.05 4.25L212.05 12.32L212.05 12.47L212.05 12.47Q212.05 12.52 212.04 12.57L212.04 12.57L212.04 12.57Q212.02 12.61 211.99 12.64L211.99 12.64L211.99 12.64Q211.98 12.65 211.92 12.65L211.92 12.65L211.73 12.65L211.67 12.65L211.64 12.65L211.61 12.64L211.61 12.64Q211.59 12.64 211.57 12.63L211.57 12.63L211.57 12.63Q211.56 12.61 211.56 12.60L211.56 12.60L211.56 12.60Q211.56 12.58 211.54 12.57L211.54 12.57L211.54 12.57Q211.52 12.54 211.49 12.50L211.49 12.50L211.49 12.50Q211.48 12.48 211.46 12.45L211.46 12.45L211.46 12.45Q211.44 12.41 211.42 12.40L211.42 12.40L205.32 4.56L205.39 11.22L205.39 11.22Q205.39 11.67 205.55 11.77L205.55 11.77L205.55 11.77Q205.71 11.87 206.42 11.87L206.42 11.87L206.66 11.87L206.66 12.41L203.72 12.41L203.72 11.87L204.14 11.87L204.14 11.87Q204.52 11.87 204.63 11.76L204.63 11.76L204.63 11.76Q204.72 11.66 204.73 11.25L204.73 11.25L204.73 3.80L204.59 3.64L203.49 3.64ZM221.37 3.64L220.88 3.64L220.88 3.08L224.39 3.08L224.38 3.64L223.64 3.64L223.64 3.64Q223.30 3.64 223.30 3.82L223.30 3.82L223.30 3.82Q223.30 3.98 223.49 4.48L223.49 4.48L226.10 10.94L229.04 4.18L229.04 4.18Q229.11 3.97 229.11 3.92L229.11 3.92L229.11 3.92Q229.11 3.79 229.01 3.74L229.01 3.74L229.01 3.74Q228.92 3.68 228.77 3.65L228.77 3.65L228.77 3.65Q228.69 3.64 228.42 3.64L228.42 3.64L227.98 3.64L227.95 3.08L230.79 3.08L230.76 3.64L230.36 3.64L230.36 3.64Q230.04 3.64 229.88 3.83L229.88 3.83L229.88 3.83Q229.80 3.93 229.33 4.94L229.33 4.94L229.33 4.94Q229.12 5.46 229.05 5.57L229.05 5.57L225.92 12.63L225.68 12.63L222.43 4.73L222.43 4.73Q222.11 3.93 221.97 3.79L221.97 3.79L221.97 3.79Q221.81 3.63 221.37 3.64L221.37 3.64ZM238.54 3.64L238.53 3.08L245.74 3.08L245.74 3.08Q245.75 4.14 245.81 5.28L245.81 5.28L245.26 5.30L245.26 5.30Q245.25 4.66 245.19 4.25L245.19 4.25L245.19 4.25Q245.15 3.89 245.10 3.80L245.10 3.80L245.10 3.80Q245.04 3.71 244.92 3.69L244.92 3.69L244.92 3.69Q244.83 3.68 244.24 3.68L244.24 3.68L241.86 3.68L241.86 3.68Q241.32 3.68 241.17 3.77L241.17 3.77L241.17 3.77Q241.05 3.86 241.05 4.33L241.05 4.33L241.05 6.28L241.05 6.28Q241.05 6.69 241.10 6.76L241.10 6.76L241.10 6.76Q241.17 6.84 241.51 6.84L241.51 6.84L243.63 6.84L243.63 6.84Q243.99 6.84 244.07 6.73L244.07 6.73L244.07 6.73Q244.15 6.63 244.16 6.14L244.16 6.14L244.16 5.61L244.67 5.63L244.67 8.97L244.16 8.97L244.16 8.24L244.16 8.24Q244.16 7.66 244.08 7.57L244.08 7.57L244.08 7.57Q244.00 7.46 243.65 7.46L243.65 7.46L241.55 7.46L241.55 7.46Q241.22 7.46 241.13 7.54L241.13 7.54L241.13 7.54Q241.05 7.63 241.05 7.89L241.05 7.89L241.05 11.20L241.05 11.20Q241.05 11.57 241.13 11.67L241.13 11.67L241.13 11.67Q241.22 11.77 241.49 11.77L241.49 11.77L241.49 11.77Q244.41 11.75 244.94 11.69L244.94 11.69L244.94 11.69Q245.46 11.63 245.54 11.38L245.54 11.38L245.55 11.36L245.55 11.35L245.78 10.17L246.26 10.25L245.91 12.41L238.81 12.41L238.81 11.87L239.18 11.87L239.18 11.87Q239.74 11.87 239.82 11.80L239.82 11.80L239.82 11.80Q239.91 11.72 239.91 11.33L239.91 11.33L239.91 4.24L239.91 4.24Q239.91 3.82 239.76 3.73L239.76 3.73L239.76 3.73Q239.59 3.64 238.94 3.64L238.94 3.64L238.54 3.64ZM254.15 3.64L254.13 3.08L256.31 3.08L262.04 10.48L262.04 4.14L262.04 4.14Q262.04 3.81 261.89 3.72L261.89 3.72L261.89 3.72Q261.73 3.64 261.28 3.64L261.28 3.64L260.78 3.64L260.81 3.08L263.79 3.08L263.79 3.64L263.47 3.64L263.47 3.64Q263.01 3.64 262.86 3.75L262.86 3.75L262.86 3.75Q262.71 3.86 262.71 4.25L262.71 4.25L262.71 12.32L262.71 12.47L262.71 12.47Q262.71 12.52 262.69 12.57L262.69 12.57L262.69 12.57Q262.68 12.61 262.64 12.64L262.64 12.64L262.64 12.64Q262.63 12.65 262.58 12.65L262.58 12.65L262.38 12.65L262.32 12.65L262.29 12.65L262.27 12.64L262.27 12.64Q262.24 12.64 262.23 12.63L262.23 12.63L262.23 12.63Q262.21 12.61 262.21 12.60L262.21 12.60L262.21 12.60Q262.21 12.58 262.20 12.57L262.20 12.57L262.20 12.57Q262.17 12.54 262.14 12.50L262.14 12.50L262.14 12.50Q262.13 12.48 262.11 12.45L262.11 12.45L262.11 12.45Q262.09 12.41 262.08 12.40L262.08 12.40L255.97 4.56L256.04 11.22L256.04 11.22Q256.04 11.67 256.20 11.77L256.20 11.77L256.20 11.77Q256.36 11.87 257.07 11.87L257.07 11.87L257.31 11.87L257.31 12.41L254.37 12.41L254.37 11.87L254.80 11.87L254.80 11.87Q255.17 11.87 255.28 11.76L255.28 11.76L255.28 11.76Q255.38 11.66 255.38 11.25L255.38 11.25L255.38 3.80L255.24 3.64L254.15 3.64ZM272.12 3.64L271.53 3.64L271.54 3.08L275.06 3.08L275.06 3.64L274.83 3.64L274.83 3.64Q274.28 3.64 274.11 3.73L274.11 3.73L274.11 3.73Q273.97 3.81 273.97 4.28L273.97 4.28L273.97 11.22L273.97 11.22Q273.97 11.68 274.08 11.77L274.08 11.77L274.08 11.77Q274.19 11.87 274.72 11.87L274.72 11.87L275.27 11.87L275.28 12.41L271.70 12.41L271.69 11.87L272.05 11.87L272.05 11.87Q272.61 11.87 272.72 11.77L272.72 11.77L272.72 11.77Q272.84 11.67 272.84 11.25L272.84 11.25L272.84 4.14L272.84 4.14Q272.84 3.77 272.73 3.71L272.73 3.71L272.73 3.71Q272.62 3.64 272.12 3.64L272.12 3.64ZM283.04 3.64L283.02 3.08L290.23 3.08L290.23 3.08Q290.25 4.14 290.30 5.28L290.30 5.28L289.75 5.30L289.75 5.30Q289.74 4.66 289.69 4.25L289.69 4.25L289.69 4.25Q289.65 3.89 289.59 3.80L289.59 3.80L289.59 3.80Q289.54 3.71 289.42 3.69L289.42 3.69L289.42 3.69Q289.32 3.68 288.74 3.68L288.74 3.68L286.36 3.68L286.36 3.68Q285.81 3.68 285.67 3.77L285.67 3.77L285.67 3.77Q285.54 3.86 285.54 4.33L285.54 4.33L285.54 6.28L285.54 6.28Q285.54 6.69 285.60 6.76L285.60 6.76L285.60 6.76Q285.67 6.84 286.01 6.84L286.01 6.84L288.12 6.84L288.12 6.84Q288.48 6.84 288.57 6.73L288.57 6.73L288.57 6.73Q288.65 6.63 288.65 6.14L288.65 6.14L288.65 5.61L289.17 5.63L289.17 8.97L288.65 8.97L288.65 8.24L288.65 8.24Q288.65 7.66 288.58 7.57L288.58 7.57L288.58 7.57Q288.50 7.46 288.15 7.46L288.15 7.46L286.05 7.46L286.05 7.46Q285.71 7.46 285.63 7.54L285.63 7.54L285.63 7.54Q285.54 7.63 285.54 7.89L285.54 7.89L285.54 11.20L285.54 11.20Q285.54 11.57 285.63 11.67L285.63 11.67L285.63 11.67Q285.71 11.77 285.99 11.77L285.99 11.77L285.99 11.77Q288.91 11.75 289.43 11.69L289.43 11.69L289.43 11.69Q289.95 11.63 290.04 11.38L290.04 11.38L290.04 11.36L290.05 11.35L290.27 10.17L290.75 10.25L290.40 12.41L283.30 12.41L283.30 11.87L283.67 11.87L283.67 11.87Q284.23 11.87 284.31 11.80L284.31 11.80L284.31 11.80Q284.41 11.72 284.41 11.33L284.41 11.33L284.41 4.24L284.41 4.24Q284.41 3.82 284.26 3.73L284.26 3.73L284.26 3.73Q284.09 3.64 283.43 3.64L283.43 3.64L283.04 3.64ZM298.64 3.64L298.63 3.08L300.80 3.08L306.54 10.48L306.54 4.14L306.54 4.14Q306.54 3.81 306.38 3.72L306.38 3.72L306.38 3.72Q306.23 3.64 305.77 3.64L305.77 3.64L305.28 3.64L305.31 3.08L308.29 3.08L308.29 3.64L307.97 3.64L307.97 3.64Q307.50 3.64 307.35 3.75L307.35 3.75L307.35 3.75Q307.20 3.86 307.20 4.25L307.20 4.25L307.20 12.32L307.20 12.47L307.20 12.47Q307.20 12.52 307.19 12.57L307.19 12.57L307.19 12.57Q307.17 12.61 307.14 12.64L307.14 12.64L307.14 12.64Q307.13 12.65 307.07 12.65L307.07 12.65L306.88 12.65L306.82 12.65L306.79 12.65L306.76 12.64L306.76 12.64Q306.74 12.64 306.72 12.63L306.72 12.63L306.72 12.63Q306.71 12.61 306.71 12.60L306.71 12.60L306.71 12.60Q306.71 12.58 306.69 12.57L306.69 12.57L306.69 12.57Q306.67 12.54 306.64 12.50L306.64 12.50L306.64 12.50Q306.63 12.48 306.61 12.45L306.61 12.45L306.61 12.45Q306.58 12.41 306.57 12.40L306.57 12.40L300.47 4.56L300.54 11.22L300.54 11.22Q300.54 11.67 300.70 11.77L300.70 11.77L300.70 11.77Q300.86 11.87 301.57 11.87L301.57 11.87L301.81 11.87L301.81 12.41L298.87 12.41L298.87 11.87L299.29 11.87L299.29 11.87Q299.67 11.87 299.78 11.76L299.78 11.76L299.78 11.76Q299.87 11.66 299.88 11.25L299.88 11.25L299.88 3.80L299.74 3.64L298.64 3.64ZM316.41 8.02L316.41 8.02L316.41 8.02Q316.41 6.86 316.88 5.83L316.88 5.83L316.88 5.83Q317.34 4.85 318.10 4.27L318.10 4.27L318.10 4.27Q318.84 3.69 319.74 3.37L319.74 3.37L319.74 3.37Q320.63 3.05 321.47 3.05L321.47 3.05L321.47 3.05Q322.34 3.05 323.01 3.16L323.01 3.16L323.01 3.16Q323.64 3.26 323.93 3.37L323.93 3.37L323.93 3.37Q324.24 3.48 324.28 3.48L324.28 3.48L324.28 3.48Q324.45 3.48 324.47 3.41L324.47 3.41L324.47 3.41Q324.50 3.33 324.50 3.09L324.50 3.09L324.50 2.97L325.03 2.97L325.03 2.97Q325.07 4.30 325.20 5.64L325.20 5.64L324.69 5.65L324.69 5.65Q324.67 5.40 324.65 5.26L324.65 5.26L324.65 5.26Q324.65 5.20 324.65 5.13L324.65 5.13L324.65 5.13Q324.64 5.07 324.63 5.02L324.63 5.02L324.63 5.02Q324.63 4.98 324.63 4.95L324.63 4.95L324.63 4.95Q324.60 4.84 324.60 4.74L324.60 4.74L324.60 4.74Q324.60 4.68 324.56 4.59L324.56 4.59L324.56 4.59Q324.56 4.57 324.53 4.55L324.53 4.55L324.53 4.55Q324.50 4.52 324.50 4.50L324.50 4.50L324.50 4.50Q324.47 4.44 324.40 4.41L324.40 4.41L324.40 4.41Q324.36 4.38 324.33 4.37L324.33 4.37L324.33 4.37Q324.30 4.36 324.28 4.35L324.28 4.35L324.28 4.35Q324.26 4.35 324.24 4.33L324.24 4.33L324.24 4.33Q324.21 4.31 324.17 4.29L324.17 4.29L324.17 4.29Q324.13 4.27 324.09 4.25L324.09 4.25L324.09 4.25Q323.87 4.16 323.84 4.14L323.84 4.14L323.84 4.14Q323.49 3.96 322.85 3.83L322.85 3.83L322.85 3.83Q322.18 3.71 321.51 3.71L321.51 3.71L321.51 3.71Q319.79 3.71 318.70 4.84L318.70 4.84L318.70 4.84Q317.59 5.99 317.60 7.62L317.60 7.62L317.60 7.62Q317.60 9.35 318.81 10.69L318.81 10.69L318.81 10.69Q320.02 12.02 321.84 12.02L321.84 12.02L321.84 12.02Q322.84 12.02 323.78 11.49L323.78 11.49L323.78 11.49Q324.73 10.94 324.76 10.58L324.76 10.58L324.80 9.41L325.29 9.41L325.21 11.45L325.21 11.45Q325.14 11.49 325.01 11.57L325.01 11.57L325.01 11.57Q324.96 11.60 324.50 11.85L324.50 11.85L324.50 11.85Q324.12 12.05 323.67 12.23L323.67 12.23L323.67 12.23Q323.31 12.39 322.66 12.51L322.66 12.51L322.66 12.51Q322.05 12.63 321.49 12.64L321.49 12.64L321.49 12.64Q319.11 12.64 317.75 11.39L317.75 11.39L317.75 11.39Q316.41 10.14 316.41 8.02ZM333.34 3.64L333.33 3.08L340.54 3.08L340.54 3.08Q340.55 4.14 340.61 5.28L340.61 5.28L340.06 5.30L340.06 5.30Q340.05 4.66 339.99 4.25L339.99 4.25L339.99 4.25Q339.95 3.89 339.90 3.80L339.90 3.80L339.90 3.80Q339.84 3.71 339.73 3.69L339.73 3.69L339.73 3.69Q339.63 3.68 339.04 3.68L339.04 3.68L336.66 3.68L336.66 3.68Q336.12 3.68 335.97 3.77L335.97 3.77L335.97 3.77Q335.85 3.86 335.85 4.33L335.85 4.33L335.85 6.28L335.85 6.28Q335.85 6.69 335.90 6.76L335.90 6.76L335.90 6.76Q335.97 6.84 336.31 6.84L336.31 6.84L338.43 6.84L338.43 6.84Q338.79 6.84 338.87 6.73L338.87 6.73L338.87 6.73Q338.95 6.63 338.96 6.14L338.96 6.14L338.96 5.61L339.47 5.63L339.47 8.97L338.96 8.97L338.96 8.24L338.96 8.24Q338.96 7.66 338.88 7.57L338.88 7.57L338.88 7.57Q338.80 7.46 338.45 7.46L338.45 7.46L336.36 7.46L336.36 7.46Q336.02 7.46 335.94 7.54L335.94 7.54L335.94 7.54Q335.85 7.63 335.85 7.89L335.85 7.89L335.85 11.20L335.85 11.20Q335.85 11.57 335.94 11.67L335.94 11.67L335.94 11.67Q336.02 11.77 336.29 11.77L336.29 11.77L336.29 11.77Q339.21 11.75 339.74 11.69L339.74 11.69L339.74 11.69Q340.26 11.63 340.34 11.38L340.34 11.38L340.35 11.36L340.35 11.35L340.58 10.17L341.06 10.25L340.71 12.41L333.61 12.41L333.61 11.87L333.98 11.87L333.98 11.87Q334.54 11.87 334.62 11.80L334.62 11.80L334.62 11.80Q334.71 11.72 334.71 11.33L334.71 11.33L334.71 4.24L334.71 4.24Q334.71 3.82 334.56 3.73L334.56 3.73L334.56 3.73Q334.39 3.64 333.74 3.64L333.74 3.64L333.34 3.64Z"></path></g></svg>