<svg data-v-423bf9ae="" xmlns="http://www.w3.org/2000/svg" viewBox="0 0 313.19081104683204 60" class="font"><!----><!----><!----><g data-v-423bf9ae="" id="b85bc7e2-ce5d-4667-8c5c-db31b662232c" fill="black" transform="matrix(4.9461588859558105,0,0,4.9461588859558105,-5.193458080291748,-14.541704177856445)"><path d="M4.99 3.42L2.60 3.42L2.60 7.66L3.12 7.66L3.12 7.66Q3.41 7.66 3.69 7.55L3.69 7.55L3.69 7.55Q3.98 7.44 4.21 7.23L4.21 7.23L4.21 7.23Q4.44 7.01 4.60 6.69L4.60 6.69L4.60 6.69Q4.76 6.36 4.79 5.93L4.79 5.93L5.09 5.93L5.09 9.63L4.79 9.63L4.79 9.63Q4.74 9.22 4.58 8.92L4.58 8.92L4.58 8.92Q4.42 8.61 4.18 8.41L4.18 8.41L4.18 8.41Q3.95 8.20 3.67 8.10L3.67 8.10L3.67 8.10Q3.40 8.00 3.12 8.00L3.12 8.00L2.60 8.00L2.60 11.20L2.60 11.20Q2.60 11.66 2.53 11.96L2.53 11.96L2.53 11.96Q2.45 12.26 2.28 12.45L2.28 12.45L2.28 12.45Q2.10 12.64 1.80 12.72L1.80 12.72L1.80 12.72Q1.50 12.80 1.05 12.80L1.05 12.80L1.05 3.98L1.05 3.98Q1.05 3.64 1.06 3.46L1.06 3.46L1.06 3.46Q1.07 3.27 1.15 3.19L1.15 3.19L1.15 3.19Q1.22 3.11 1.38 3.10L1.38 3.10L1.38 3.10Q1.54 3.08 1.83 3.08L1.83 3.08L6.13 3.08L6.13 3.08Q6.43 3.08 6.59 3.12L6.59 3.12L6.59 3.12Q6.75 3.15 6.83 3.25L6.83 3.25L6.83 3.25Q6.90 3.35 6.92 3.52L6.92 3.52L6.92 3.52Q6.93 3.70 6.93 3.97L6.93 3.97L6.93 5.91L6.54 5.91L6.54 4.94L6.54 4.94Q6.54 4.51 6.45 4.22L6.45 4.22L6.45 4.22Q6.37 3.93 6.19 3.75L6.19 3.75L6.19 3.75Q6.01 3.58 5.71 3.50L5.71 3.50L5.71 3.50Q5.42 3.42 4.99 3.42L4.99 3.42ZM9.84 2.94L9.84 2.94L9.84 10.94L9.84 10.94Q9.84 11.22 9.84 11.55L9.84 11.55L9.84 11.55Q9.84 11.87 9.92 12.14L9.92 12.14L9.92 12.14Q10.00 12.41 10.19 12.58L10.19 12.58L10.19 12.58Q10.38 12.76 10.75 12.76L10.75 12.76L10.75 12.76Q10.77 12.76 10.77 12.78L10.77 12.78L10.77 12.78Q10.77 12.80 10.75 12.80L10.75 12.80L9.82 12.80L9.82 12.80Q9.29 12.80 8.99 12.68L8.99 12.68L8.99 12.68Q8.68 12.56 8.53 12.36L8.53 12.36L8.53 12.36Q8.37 12.15 8.34 11.87L8.34 11.87L8.34 11.87Q8.30 11.59 8.30 11.27L8.30 11.27L8.30 4.57L8.30 4.57Q8.30 4.12 8.38 3.80L8.38 3.80L8.38 3.80Q8.46 3.49 8.64 3.29L8.64 3.29L8.64 3.29Q8.83 3.10 9.12 3.02L9.12 3.02L9.12 3.02Q9.41 2.94 9.84 2.94ZM15.76 12.80L13.32 12.80L13.32 12.80Q12.84 12.80 12.54 12.67L12.54 12.67L12.54 12.67Q12.24 12.54 12.08 12.30L12.08 12.30L12.08 12.30Q11.91 12.06 11.85 11.72L11.85 11.72L11.85 11.72Q11.79 11.39 11.79 10.98L11.79 10.98L11.79 6.74L11.79 6.74Q11.79 6.30 11.86 5.99L11.86 5.99L11.86 5.99Q11.94 5.69 12.11 5.50L12.11 5.50L12.11 5.50Q12.29 5.31 12.59 5.23L12.59 5.23L12.59 5.23Q12.89 5.15 13.34 5.15L13.34 5.15L13.34 11.27L13.34 11.27Q13.34 11.58 13.43 11.81L13.43 11.81L13.43 11.81Q13.51 12.03 13.69 12.18L13.69 12.18L13.69 12.18Q13.87 12.33 14.16 12.39L14.16 12.39L14.16 12.39Q14.46 12.46 14.89 12.46L14.89 12.46L15.50 12.46L15.50 12.46Q16.26 12.46 16.66 12.19L16.66 12.19L16.66 12.19Q17.05 11.92 17.05 11.30L17.05 11.30L17.05 5.96L17.05 5.96Q17.05 5.73 17.06 5.57L17.06 5.57L17.06 5.57Q17.07 5.41 17.11 5.32L17.11 5.32L17.11 5.32Q17.14 5.23 17.22 5.19L17.22 5.19L17.22 5.19Q17.30 5.15 17.44 5.15L17.44 5.15L17.44 11.30L17.44 11.30Q17.44 11.59 17.36 11.86L17.36 11.86L17.36 11.86Q17.28 12.13 17.09 12.34L17.09 12.34L17.09 12.34Q16.90 12.55 16.57 12.68L16.57 12.68L16.57 12.68Q16.25 12.80 15.76 12.80L15.76 12.80ZM20.84 4.22L20.84 4.22L20.84 5.27L22.34 5.27L22.34 5.61L20.84 5.61L20.84 11.21L20.84 11.21Q20.84 11.66 20.77 11.96L20.77 11.96L20.77 11.96Q20.70 12.26 20.52 12.45L20.52 12.45L20.52 12.45Q20.34 12.64 20.05 12.72L20.05 12.72L20.05 12.72Q19.75 12.80 19.30 12.80L19.30 12.80L19.30 5.61L18.48 5.61L18.48 5.27L19.30 5.27L19.30 4.60L19.30 4.60Q19.30 4.29 19.41 4.01L19.41 4.01L19.41 4.01Q19.52 3.73 19.72 3.53L19.72 3.53L19.72 3.53Q19.92 3.32 20.20 3.20L20.20 3.20L20.20 3.20Q20.47 3.08 20.82 3.08L20.82 3.08L22.11 3.08L22.11 3.08Q22.36 3.08 22.49 3.13L22.49 3.13L22.49 3.13Q22.63 3.18 22.69 3.29L22.69 3.29L22.69 3.29Q22.75 3.40 22.76 3.56L22.76 3.56L22.76 3.56Q22.77 3.73 22.77 3.97L22.77 3.97L22.77 4.59L22.37 4.59L22.37 4.59Q22.34 4.34 22.28 4.14L22.28 4.14L22.28 4.14Q22.22 3.93 22.11 3.78L22.11 3.78L22.11 3.78Q22.00 3.64 21.83 3.55L21.83 3.55L21.83 3.55Q21.67 3.47 21.44 3.47L21.44 3.47L21.44 3.47Q21.14 3.47 20.99 3.69L20.99 3.69L20.99 3.69Q20.84 3.90 20.84 4.22ZM24.45 4.22L24.45 4.22L24.45 5.27L25.94 5.27L25.94 5.61L24.45 5.61L24.45 11.21L24.45 11.21Q24.45 11.66 24.37 11.96L24.37 11.96L24.37 11.96Q24.30 12.26 24.12 12.45L24.12 12.45L24.12 12.45Q23.95 12.64 23.65 12.72L23.65 12.72L23.65 12.72Q23.35 12.80 22.90 12.80L22.90 12.80L22.90 5.61L22.09 5.61L22.09 5.27L22.90 5.27L22.90 4.60L22.90 4.60Q22.90 4.29 23.01 4.01L23.01 4.01L23.01 4.01Q23.12 3.73 23.32 3.53L23.32 3.53L23.32 3.53Q23.52 3.32 23.80 3.20L23.80 3.20L23.80 3.20Q24.08 3.08 24.42 3.08L24.42 3.08L25.72 3.08L25.72 3.08Q25.96 3.08 26.10 3.13L26.10 3.13L26.10 3.13Q26.23 3.18 26.29 3.29L26.29 3.29L26.29 3.29Q26.35 3.40 26.36 3.56L26.36 3.56L26.36 3.56Q26.37 3.73 26.37 3.97L26.37 3.97L26.37 4.59L25.97 4.59L25.97 4.59Q25.94 4.34 25.88 4.14L25.88 4.14L25.88 4.14Q25.82 3.93 25.71 3.78L25.71 3.78L25.71 3.78Q25.60 3.64 25.44 3.55L25.44 3.55L25.44 3.55Q25.27 3.47 25.05 3.47L25.05 3.47L25.05 3.47Q24.74 3.47 24.59 3.69L24.59 3.69L24.59 3.69Q24.45 3.90 24.45 4.22ZM25.63 5.27L25.63 5.27L26.27 5.27L26.27 5.27Q26.67 5.27 26.94 5.34L26.94 5.34L26.94 5.34Q27.21 5.41 27.40 5.55L27.40 5.55L27.40 5.55Q27.59 5.70 27.72 5.93L27.72 5.93L27.72 5.93Q27.85 6.16 27.95 6.49L27.95 6.49L29.48 11.28L31.32 5.60L31.32 5.60Q31.38 5.39 31.47 5.33L31.47 5.33L31.47 5.33Q31.55 5.27 31.72 5.27L31.72 5.27L32.12 5.27L32.12 5.27Q32.15 5.27 32.15 5.28L32.15 5.28L32.15 5.28Q32.15 5.29 32.12 5.29L32.12 5.29L32.12 5.29Q31.92 5.29 31.83 5.38L31.83 5.38L31.83 5.38Q31.73 5.48 31.66 5.67L31.66 5.67L29.06 13.90L29.06 13.90Q28.96 14.25 28.82 14.48L28.82 14.48L28.82 14.48Q28.68 14.71 28.51 14.84L28.51 14.84L28.51 14.84Q28.34 14.97 28.15 15.02L28.15 15.02L28.15 15.02Q27.96 15.07 27.77 15.07L27.77 15.07L27.62 15.07L27.62 15.07Q27.12 15.08 26.81 14.93L26.81 14.93L26.81 14.93Q26.51 14.78 26.35 14.55L26.35 14.55L26.35 14.55Q26.19 14.32 26.14 14.05L26.14 14.05L26.14 14.05Q26.09 13.78 26.08 13.56L26.08 13.56L26.08 13.56Q26.17 13.56 26.24 13.56L26.24 13.56L26.24 13.56Q26.31 13.57 26.36 13.61L26.36 13.61L26.36 13.61Q26.40 13.64 26.43 13.72L26.43 13.72L26.43 13.72Q26.46 13.79 26.48 13.92L26.48 13.92L26.48 13.92Q26.58 14.34 26.87 14.54L26.87 14.54L26.87 14.54Q27.16 14.75 27.75 14.72L27.75 14.72L27.75 14.72Q28.18 14.72 28.43 14.37L28.43 14.37L28.43 14.37Q28.68 14.02 28.84 13.42L28.84 13.42L29.00 12.88L29.00 12.88Q28.90 12.84 28.79 12.77L28.79 12.77L28.79 12.77Q28.67 12.69 28.56 12.58L28.56 12.58L28.56 12.58Q28.44 12.46 28.35 12.29L28.35 12.29L28.35 12.29Q28.25 12.11 28.16 11.87L28.16 11.87L26.26 5.90L26.26 5.90Q26.21 5.75 26.16 5.64L26.16 5.64L26.16 5.64Q26.11 5.52 26.05 5.44L26.05 5.44L26.05 5.44Q25.98 5.37 25.88 5.33L25.88 5.33L25.88 5.33Q25.79 5.29 25.63 5.29L25.63 5.29L25.63 5.29Q25.61 5.29 25.61 5.28L25.61 5.28L25.61 5.28Q25.61 5.27 25.63 5.27ZM34.72 3.08L37.82 3.08L37.82 3.08Q38.13 3.08 38.41 3.20L38.41 3.20L38.41 3.20Q38.68 3.32 38.89 3.53L38.89 3.53L38.89 3.53Q39.10 3.74 39.22 4.02L39.22 4.02L39.22 4.02Q39.35 4.30 39.35 4.61L39.35 4.61L39.35 5.92L38.96 5.92L38.96 5.92Q38.91 5.28 38.72 4.82L38.72 4.82L38.72 4.82Q38.53 4.35 38.23 4.04L38.23 4.04L38.23 4.04Q37.94 3.73 37.57 3.58L37.57 3.58L37.57 3.58Q37.19 3.43 36.78 3.43L36.78 3.43L36.27 3.43L36.27 3.43Q35.86 3.43 35.57 3.51L35.57 3.51L35.57 3.51Q35.27 3.60 35.09 3.78L35.09 3.78L35.09 3.78Q34.90 3.96 34.81 4.25L34.81 4.25L34.81 4.25Q34.72 4.53 34.72 4.94L34.72 4.94L34.72 10.94L34.72 10.94Q34.72 11.36 34.81 11.65L34.81 11.65L34.81 11.65Q34.90 11.94 35.09 12.12L35.09 12.12L35.09 12.12Q35.27 12.30 35.57 12.39L35.57 12.39L35.57 12.39Q35.86 12.47 36.27 12.47L36.27 12.47L36.78 12.47L36.78 12.47Q37.20 12.47 37.62 12.29L37.62 12.29L37.62 12.29Q38.04 12.11 38.37 11.77L38.37 11.77L38.37 11.77Q38.71 11.42 38.91 10.91L38.91 10.91L38.91 10.91Q39.12 10.40 39.12 9.73L39.12 9.73L39.12 9.04L39.51 9.04L39.51 11.28L39.51 11.28Q39.51 11.59 39.39 11.87L39.39 11.87L39.39 11.87Q39.27 12.15 39.06 12.36L39.06 12.36L39.06 12.36Q38.85 12.56 38.57 12.68L38.57 12.68L38.57 12.68Q38.29 12.80 37.98 12.80L37.98 12.80L34.72 12.80L34.72 12.80Q34.41 12.80 34.13 12.68L34.13 12.68L34.13 12.68Q33.85 12.56 33.64 12.36L33.64 12.36L33.64 12.36Q33.43 12.15 33.31 11.87L33.31 11.87L33.31 11.87Q33.20 11.59 33.20 11.28L33.20 11.28L33.20 4.61L33.20 4.61Q33.20 4.30 33.31 4.02L33.31 4.02L33.31 4.02Q33.43 3.74 33.64 3.53L33.64 3.53L33.64 3.53Q33.85 3.32 34.13 3.20L34.13 3.20L34.13 3.20Q34.41 3.08 34.72 3.08L34.72 3.08ZM42.42 2.94L42.42 2.94L42.42 10.94L42.42 10.94Q42.42 11.22 42.42 11.55L42.42 11.55L42.42 11.55Q42.42 11.87 42.50 12.14L42.50 12.14L42.50 12.14Q42.58 12.41 42.77 12.58L42.77 12.58L42.77 12.58Q42.96 12.76 43.33 12.76L43.33 12.76L43.33 12.76Q43.35 12.76 43.35 12.78L43.35 12.78L43.35 12.78Q43.35 12.80 43.33 12.80L43.33 12.80L42.40 12.80L42.40 12.80Q41.87 12.80 41.57 12.68L41.57 12.68L41.57 12.68Q41.26 12.56 41.11 12.36L41.11 12.36L41.11 12.36Q40.95 12.15 40.92 11.87L40.92 11.87L40.92 11.87Q40.88 11.59 40.88 11.27L40.88 11.27L40.88 4.57L40.88 4.57Q40.88 4.12 40.96 3.80L40.96 3.80L40.96 3.80Q41.04 3.49 41.22 3.29L41.22 3.29L41.22 3.29Q41.41 3.10 41.70 3.02L41.70 3.02L41.70 3.02Q41.99 2.94 42.42 2.94ZM47.18 5.63L47.18 5.63L47.18 5.63Q46.47 5.63 46.18 5.98L46.18 5.98L46.18 5.98Q45.88 6.34 45.88 7.12L45.88 7.12L45.88 7.77L48.48 7.77L48.48 7.12L48.48 7.12Q48.48 6.73 48.41 6.45L48.41 6.45L48.41 6.45Q48.34 6.17 48.19 5.98L48.19 5.98L48.19 5.98Q48.04 5.80 47.79 5.71L47.79 5.71L47.79 5.71Q47.54 5.63 47.18 5.63ZM50.00 8.11L45.88 8.11L45.88 10.95L45.88 10.95Q45.88 11.38 45.96 11.67L45.96 11.67L45.96 11.67Q46.05 11.96 46.23 12.14L46.23 12.14L46.23 12.14Q46.41 12.32 46.71 12.40L46.71 12.40L46.71 12.40Q47.00 12.48 47.43 12.48L47.43 12.48L47.51 12.48L47.51 12.48Q47.94 12.48 48.23 12.40L48.23 12.40L48.23 12.40Q48.53 12.32 48.71 12.14L48.71 12.14L48.71 12.14Q48.90 11.96 48.98 11.67L48.98 11.67L48.98 11.67Q49.05 11.38 49.05 10.95L49.05 10.95L49.05 10.30L49.44 10.30L49.44 11.29L49.44 11.29Q49.44 11.51 49.40 11.78L49.40 11.78L49.40 11.78Q49.35 12.04 49.19 12.27L49.19 12.27L49.19 12.27Q49.03 12.50 48.73 12.65L48.73 12.65L48.73 12.65Q48.43 12.80 47.93 12.80L47.93 12.80L45.88 12.80L45.88 12.80Q45.61 12.80 45.34 12.67L45.34 12.67L45.34 12.67Q45.07 12.54 44.85 12.33L44.85 12.33L44.85 12.33Q44.64 12.11 44.51 11.84L44.51 11.84L44.51 11.84Q44.37 11.57 44.37 11.29L44.37 11.29L44.37 6.79L44.37 6.79Q44.37 6.49 44.50 6.22L44.50 6.22L44.50 6.22Q44.62 5.95 44.83 5.75L44.83 5.75L44.83 5.75Q45.04 5.54 45.31 5.42L45.31 5.42L45.31 5.42Q45.58 5.29 45.88 5.27L45.88 5.27L48.48 5.27L48.48 5.27Q48.79 5.27 49.07 5.39L49.07 5.39L49.07 5.39Q49.35 5.51 49.55 5.72L49.55 5.72L49.55 5.72Q49.76 5.93 49.88 6.20L49.88 6.20L49.88 6.20Q50.00 6.48 50.00 6.79L50.00 6.79L50.00 8.11ZM52.88 7.79L55.48 7.79L55.48 7.14L55.48 7.14Q55.48 6.32 55.09 5.97L55.09 5.97L55.09 5.97Q54.70 5.63 53.89 5.63L53.89 5.63L53.89 5.63Q53.48 5.63 53.20 5.70L53.20 5.70L53.20 5.70Q52.92 5.78 52.74 5.96L52.74 5.96L52.74 5.96Q52.56 6.15 52.48 6.43L52.48 6.43L52.48 6.43Q52.40 6.72 52.40 7.14L52.40 7.14L52.40 7.30L52.01 7.30L52.01 6.18L52.01 6.18Q52.01 5.87 52.03 5.69L52.03 5.69L52.03 5.69Q52.05 5.51 52.13 5.42L52.13 5.42L52.13 5.42Q52.21 5.33 52.37 5.31L52.37 5.31L52.37 5.31Q52.53 5.28 52.82 5.28L52.82 5.28L55.48 5.28L55.48 5.28Q55.76 5.28 56.03 5.42L56.03 5.42L56.03 5.42Q56.30 5.55 56.52 5.77L56.52 5.77L56.52 5.77Q56.73 5.98 56.86 6.25L56.86 6.25L56.86 6.25Q56.99 6.53 56.99 6.81L56.99 6.81L56.99 11.27L56.99 11.27Q56.99 11.58 56.87 11.85L56.87 11.85L56.87 11.85Q56.75 12.12 56.53 12.33L56.53 12.33L56.53 12.33Q56.32 12.53 56.05 12.66L56.05 12.66L56.05 12.66Q55.77 12.78 55.48 12.80L55.48 12.80L52.88 12.80L52.88 12.80Q52.56 12.80 52.29 12.68L52.29 12.68L52.29 12.68Q52.01 12.56 51.81 12.36L51.81 12.36L51.81 12.36Q51.60 12.15 51.48 11.87L51.48 11.87L51.48 11.87Q51.37 11.59 51.37 11.27L51.37 11.27L51.37 9.31L51.37 9.31Q51.37 9.00 51.48 8.72L51.48 8.72L51.48 8.72Q51.60 8.44 51.81 8.23L51.81 8.23L51.81 8.23Q52.01 8.03 52.29 7.91L52.29 7.91L52.29 7.91Q52.56 7.79 52.88 7.79L52.88 7.79ZM55.48 10.94L55.48 8.13L54.43 8.13L54.43 8.13Q54.00 8.13 53.71 8.21L53.71 8.21L53.71 8.21Q53.41 8.29 53.22 8.46L53.22 8.46L53.22 8.46Q53.04 8.64 52.96 8.93L52.96 8.93L52.96 8.93Q52.88 9.22 52.88 9.64L52.88 9.64L52.88 10.94L52.88 10.94Q52.88 11.33 52.94 11.60L52.94 11.60L52.94 11.60Q53.01 11.87 53.16 12.06L53.16 12.06L53.16 12.06Q53.31 12.24 53.56 12.33L53.56 12.33L53.56 12.33Q53.80 12.43 54.15 12.46L54.15 12.46L54.15 12.46Q54.52 12.43 54.77 12.34L54.77 12.34L54.77 12.34Q55.02 12.25 55.18 12.07L55.18 12.07L55.18 12.07Q55.34 11.89 55.41 11.61L55.41 11.61L55.41 11.61Q55.48 11.33 55.48 10.94L55.48 10.94ZM62.82 5.27L62.82 5.27L62.82 5.27Q63.13 5.27 63.41 5.39L63.41 5.39L63.41 5.39Q63.69 5.51 63.90 5.72L63.90 5.72L63.90 5.72Q64.11 5.93 64.24 6.21L64.24 6.21L64.24 6.21Q64.37 6.49 64.37 6.80L64.37 6.80L64.37 11.20L64.37 11.20Q64.37 11.65 64.30 11.96L64.30 11.96L64.30 11.96Q64.22 12.26 64.05 12.45L64.05 12.45L64.05 12.45Q63.88 12.64 63.57 12.72L63.57 12.72L63.57 12.72Q63.27 12.80 62.82 12.80L62.82 12.80L62.82 7.13L62.82 7.13Q62.82 6.34 62.52 5.98L62.52 5.98L62.52 5.98Q62.21 5.62 61.55 5.62L61.55 5.62L60.28 5.62L60.28 11.20L60.28 11.20Q60.28 11.65 60.21 11.96L60.21 11.96L60.21 11.96Q60.14 12.26 59.95 12.45L59.95 12.45L59.95 12.45Q59.77 12.64 59.47 12.72L59.47 12.72L59.47 12.72Q59.17 12.80 58.72 12.80L58.72 12.80L58.72 5.27L61.55 5.27L62.82 5.27Z"></path></g><!----><!----></svg>